<?xml version="1.0" standalone="no"?>
<!DOCTYPE svg PUBLIC "-//W3C//DTD SVG 20010904//EN"
 "http://www.w3.org/TR/2001/REC-SVG-20010904/DTD/svg10.dtd">
<svg version="1.0" xmlns="http://www.w3.org/2000/svg"
 width="340.000000pt" height="110.000000pt" viewBox="0 0 340.000000 110.000000"
 preserveAspectRatio="xMidYMid meet">

<g transform="translate(0.000000,110.000000) scale(0.100000,-0.100000)"
fill="#000000" stroke="none">
<path d="M550 1031 c61 -7 102 -24 78 -33 -7 -3 -40 -41 -73 -84 -33 -44 -65
-85 -72 -91 -6 -7 -13 -17 -15 -22 -6 -18 -360 -113 -372 -100 -3 3 -6 70 -7
149 -1 137 0 145 21 162 12 10 18 18 12 18 -6 0 -20 -12 -32 -27 -20 -26 -21
-35 -18 -264 3 -217 5 -239 22 -258 18 -20 29 -21 198 -21 112 0 178 -4 178
-10 0 -6 -28 -10 -63 -10 -36 0 -68 -5 -75 -12 -17 -17 -17 -299 0 -316 8 -8
60 -12 170 -12 177 0 178 0 178 78 l0 40 -76 4 c-69 3 -78 6 -101 32 -24 28
-24 30 -21 203 4 225 -8 213 200 213 82 0 158 -4 168 -10 36 -19 50 -107 30
-181 -13 -48 -26 -57 -91 -68 -51 -8 -52 -9 -14 -10 22 0 53 6 69 14 16 9 55
15 90 15 l61 0 -3 -52 c-2 -29 -8 -57 -13 -63 -5 -5 -9 -24 -9 -42 0 -51 -47
-98 -98 -98 -22 0 -48 7 -57 15 -17 14 -15 15 21 20 l39 5 3 52 c2 29 -1 53
-5 53 -4 0 -8 -21 -8 -47 l0 -48 -87 -3 -88 -3 0 -40 c0 -79 0 -79 178 -79
110 0 162 4 170 12 17 17 17 299 0 316 -7 7 -42 12 -85 12 -42 0 -73 4 -73 10
0 6 31 10 73 10 43 0 78 5 85 12 17 17 17 299 0 316 -8 8 -60 12 -170 12 -178
0 -178 0 -178 -80 0 -23 -4 -39 -9 -36 -4 3 -6 64 -4 135 7 195 -9 223 -125
220 l-57 -2 55 -6z m442 -298 c-2 -32 -8 -62 -13 -67 -5 -6 -9 -20 -9 -33 0
-33 -20 -71 -47 -88 -22 -15 -23 -15 -23 15 0 42 -24 96 -48 109 -12 6 -50 11
-86 11 l-66 0 0 43 c0 24 5 48 12 55 8 8 56 12 148 12 l137 0 -5 -57z m-522
-375 c0 -88 22 -132 70 -143 24 -5 29 -10 20 -20 -30 -37 -120 -23 -144 23
-10 20 -21 26 -47 26 l-34 1 -3 78 c-2 50 1 84 9 93 7 9 32 14 70 14 l59 0 0
-72z"/>
<path d="M2650 580 l0 -50 -80 0 c-66 0 -83 -3 -99 -19 -25 -25 -35 -90 -29
-198 6 -121 10 -123 184 -123 l134 0 0 220 0 220 -55 0 -55 0 0 -50z m100 -91
l0 -130 -42 3 c-42 3 -43 4 -46 41 l-3 37 -48 0 c-54 0 -71 -12 -71 -52 0 -26
-3 -28 -40 -28 l-40 0 0 62 c0 88 12 98 117 98 l83 0 0 50 0 50 45 0 45 0 0
-131z m-100 -130 l0 -60 -47 3 -48 3 -3 44 c-5 64 1 71 53 71 l45 0 0 -61z"/>
<path d="M598 569 c-21 -12 -24 -59 -6 -77 7 -7 43 -12 93 -12 86 0 105 8 105
46 0 41 -25 54 -103 54 -40 0 -80 -5 -89 -11z m89 -61 c-2 -13 -4 -3 -4 22 0
25 2 35 4 23 2 -13 2 -33 0 -45z"/>
<path d="M1101 504 c-19 -24 -21 -40 -21 -170 l0 -144 55 0 55 0 0 116 0 115
48 -3 47 -3 3 -112 3 -113 52 0 52 0 -2 87 c-1 49 -3 116 -3 151 0 95 -11 102
-154 102 -112 0 -115 -1 -135 -26z m261 -1 c14 -12 18 -31 18 -80 l0 -63 -40
0 c-37 0 -40 2 -40 28 0 37 -17 52 -59 52 -47 0 -58 -9 -63 -45 -3 -28 -7 -30
-45 -33 l-43 -3 0 60 c0 92 13 101 147 101 85 0 110 -3 125 -17z"/>
<path d="M1454 522 c-26 -17 -34 -56 -34 -167 0 -110 1 -117 25 -140 22 -22
32 -25 105 -25 52 0 79 -4 75 -10 -3 -6 -50 -10 -106 -10 l-99 0 0 -56 0 -56
135 4 c190 4 179 -11 183 258 l3 210 -138 0 c-76 0 -143 -4 -149 -8z m276 -51
c0 -27 -3 -63 -6 -80 -6 -28 -10 -31 -45 -31 -39 0 -39 0 -39 40 l0 40 -44 0
c-65 0 -76 -7 -76 -46 0 -34 -1 -34 -45 -34 l-45 0 0 60 c0 94 10 100 170 100
l130 0 0 -49z m-100 -112 l0 -60 -47 3 -48 3 -3 57 -3 57 43 3 c24 2 46 2 51
0 4 -2 7 -30 7 -63z"/>
<path d="M1780 503 c-20 -26 -21 -37 -18 -151 4 -164 2 -162 179 -162 l129 0
0 50 0 49 -97 3 c-66 2 -98 7 -101 16 -3 9 18 12 81 12 103 0 119 12 125 98 3
47 0 62 -18 85 -21 27 -23 27 -140 27 -117 0 -119 0 -140 -27z m269 4 c16 -21
24 -72 17 -112 l-7 -36 -142 3 -142 3 0 63 c0 87 8 92 151 92 81 0 115 -4 123
-13z"/>
<path d="M1864 425 c-10 -26 10 -36 62 -33 41 3 49 6 49 23 0 17 -8 20 -53 23
-41 2 -54 0 -58 -13z m104 -7 c-3 -8 -22 -13 -48 -13 -26 0 -45 5 -47 13 -3 8
10 12 47 12 37 0 50 -4 48 -12z"/>
<path d="M2142 523 c-32 -13 -42 -61 -42 -198 l0 -135 55 0 54 0 3 113 3 112
48 3 47 3 0 -115 0 -116 55 0 55 0 0 145 c0 142 -1 147 -25 170 -23 24 -30 25
-132 24 -59 0 -114 -3 -121 -6z m234 -11 c22 -14 34 -51 34 -101 l0 -51 -45 0
c-44 0 -45 0 -45 34 0 37 -12 46 -64 46 -39 0 -56 -15 -56 -52 0 -26 -3 -28
-40 -28 l-40 0 0 62 c0 92 9 98 139 98 58 0 111 -4 117 -8z"/>
<path d="M2812 507 c-21 -22 -22 -33 -22 -170 l0 -147 55 0 55 0 0 114 0 115
43 3 42 3 3 53 3 52 -79 0 c-69 0 -81 -3 -100 -23z m168 -27 c0 -39 -1 -40
-34 -40 -40 0 -66 -22 -66 -56 0 -21 -4 -24 -40 -24 l-40 0 0 60 c0 84 17 100
110 100 l70 0 0 -40z"/>
<path d="M3030 480 l0 -50 95 0 c57 0 95 -4 95 -10 0 -6 -31 -10 -74 -10 -65
0 -79 -3 -103 -24 -25 -22 -28 -30 -28 -89 0 -100 10 -107 156 -107 115 0 118
1 138 26 19 24 21 40 21 144 0 104 -2 120 -21 144 -20 26 -22 26 -150 26
l-129 0 0 -50z m274 18 c10 -14 16 -44 16 -80 l0 -58 -140 0 c-89 0 -140 4
-140 10 0 18 49 30 121 30 62 0 70 2 67 18 -3 14 -17 17 -96 20 l-92 3 0 39 0
40 124 0 c118 0 126 -1 140 -22z m-86 -190 c-5 -14 -61 -23 -85 -14 -27 11 -2
26 43 26 32 0 44 -4 42 -12z"/>
<path d="M582 373 c3 -42 31 -63 71 -56 20 4 24 12 26 49 l2 44 -51 0 -51 0 3
-37z m36 -8 c-2 -27 -5 -32 -15 -23 -18 15 -17 58 2 58 12 0 15 -9 13 -35z"/>
<path d="M692 363 l3 -48 80 -3 c96 -4 96 6 -1 12 l-69 5 0 40 c0 23 -4 41 -8
41 -4 0 -7 -21 -5 -47z"/>
</g>
</svg>
